P1
# chiffre 2
5 3
1 1 1
0 0 1
1 1 1
1 0 0
1 1 1

