P1
# Chiffre "8"
5 3
1 1 1
1 0 1
1 1 1
1 0 1
1 1 1
