P1
# Chiffre "9"
5 3
1 1 1
1 0 1
1 1 1
0 0 1
1 1 1
